<?xml version="1.0" encoding="utf-8"?>
<!-- Generator: Adobe Illustrator 19.1.0, SVG Export Plug-In . SVG Version: 6.00 Build 0)  -->
<svg version="1.1" id="Layer_1" xmlns="http://www.w3.org/2000/svg" xmlns:xlink="http://www.w3.org/1999/xlink" x="0px" y="0px"
	 width="960px" height="560px" viewBox="0 0 960 560" style="enable-background:new 0 0 960 560;" xml:space="preserve">
<style type="text/css">
	.st0{fill:#EFF0F6;}
	.st1{fill:#258EE6;}
	.st2{fill:#FECB09;}
</style>
<g>
	<g>
		<path class="st0" d="M212.2,179.5c5.3-8.8,10.5-17.5,15.8-26.3c4-6.7,8.1-13.3,12.2-19.9c3.3-5.4,8.7-7.2,14.5-7.2
			c36.8-0.1,73.7-0.1,110.5,0c9.9,0,15.4,4.5,18.6,15c1.6,0,3.4,0,5.2,0c19.2,0,38.3,0.1,57.5,0c15.1-0.1,29.7,2.2,44,7
			c2.9,1,5,1.2,7.4-1.6c3.7-4.2,9.1-5.4,14.5-5.4c29.2-0.1,58.3-0.8,87.5,0.2c22.4,0.8,44.6,4.7,64.1,17.2
			c4.9,3.1,9.4,6.8,14.5,10.5c1-1.3,2.2-2.5,3.2-4c9.6-15,24.5-22.1,41.2-22.6c46.6-1.3,93.2-1.2,139.8-1.2c11,0,18.8,4.8,18.6,18.9
			c-0.2,13.7,0.1,27.3-0.1,41c-0.1,3.9-1.3,7.7-2,11.6c-0.1,0.6-0.7,1.4-0.5,1.8c4.8,9.7,1.9,20,2.5,30c0.4,7.6,0.2,15.3,0,23
			c0,2.3-0.7,4.6-0.8,6.9c-0.2,2.9-0.2,5.8-0.2,8.7c0.3,12.6,0.7,25.2,1,37.9c0.1,4-0.1,8,0,12c0.4,13.8-7.3,18.1-19,19.1
			c-2,0.2-4-0.1-6,0.1c-1,0.1-1.9,0.9-2.9,1.3c0.5,0.9,0.7,2.3,1.5,2.8c10.2,6.7,12.5,16.1,9.3,27.2c-0.9,3.1-3.1,6.3-5.5,8.5
			c-6.8,6-14.3,10.7-23.6,12.2c-3.1,0.5-6.2,2-9,3.5c-11.8,6.2-23.9,11.1-37.5,6.4c-3.5-1.2-6.8-3.3-10.1-5.2
			c-2.3-1.4-4-1.5-6.7-0.2c-7,3.2-14.2,6.6-21.7,8.1c-8.8,1.8-17.1-1.4-23.9-7.4c-2.6-2.3-4.3-2.3-7.4-0.6
			c-9.4,5.1-19.3,8.8-30.4,5.4c-1.1-0.3-2.5-0.4-3.2-1.1c-5.3-4.7-10.8-4.2-17.2-2c-9.6,3.4-18.2,0.1-25.1-6.6
			c-6.2,3.4-11.8,7.1-17.8,9.6c-10.6,4.4-21.2,5-31.3-2.1c-1.2-0.9-3.4-1.2-4.9-0.8c-10.1,3.1-19.5,2.9-28.4-3.7
			c-1.2-0.9-4.5-0.3-6,0.7c-9.3,5.9-19.2,10-30.3,9.9c-9.3-0.1-17.2-3.6-22.3-11.8c-1.8-2.9-3.8-3.5-7-2.2
			c-25.2,10.3-51.6,13.2-78.6,11.9c-8.2-0.4-16.4-1.7-23.6-6.6c-11.8-8.1-12.7-21.5-5.3-32.8c5.3-8.1,11.7-14.8,21.9-16.6
			c0.7-0.1,2-2,1.8-2.2c-1.3-2-2.6-4.1-4.5-5.5c-1.1-0.8-3.2-0.2-4.9-0.2c-16.6,0.2-33.2,0.1-49.3-4.8c-1-0.3-2.3,0-4.1,0
			c0.8,1.6,1.3,2.7,2,3.7c8.6,13.2,17.7,26.1,25.8,39.7c5.1,8.6,1.5,19.9-9,23.3c-3.2,1-6.9,1.2-10.3,1.2c-34.5,0.1-69,0-103.5,0.1
			c-9.8,0-16.6-3.8-21-12.9c-5.2-10.8-11.1-21.2-16.8-31.7c-0.9-1.7-2.1-3.2-4.2-4.5c0,9.9,0.2,19.8-0.1,29.7
			c-0.1,5.3-1.1,10.4-5.3,14.5c-4.2,4-9.3,4.9-14.7,4.9c-30.2,0.1-60.3,0.1-90.5,0c-13.3,0-20.3-6.9-20.4-20.3c-0.1-7,0-14,0-21
			c0-75.5,0-151,0-226.5c0-8.1,1.6-15.8,10.3-19.3c3-1.2,6.4-1.9,9.7-1.9c30.3-0.1,60.7-0.1,91-0.1c13,0,20,7,20,20c0,11,0,22,0,33
			C211.4,179.1,211.8,179.3,212.2,179.5z M516.8,378.8c0.2,0.2,0.5,0.5,0.7,0.7c-1,3.5-2.4,6.9-3,10.5c-1.1,6.6,2.8,11.4,9.5,10.9
			c4.5-0.3,9.5-1.2,13.3-3.4c8.6-5,16.6-11,24.9-16.5c3.1-2.1,3.3-4.6,1.7-8c-1.5,0.9-2.9,1.7-4.3,2.5c-6.1,3.5-12,7.3-18.3,10.2
			c-2.3,1.1-6.4,1.1-8.2-0.3c-1.4-1.1-1.6-5.6-0.6-7.7c2.8-5.9,6.6-11.4,10-17.1c2.2-3.6,5.1-4.9,9.5-4.7
			c7.9,0.4,13.7-3.1,17.3-11.4c-4-0.4-7.6-0.8-11.6-1.2c4.4-5,8.5-9.6,12.9-14.6c-8.3-2.7-15.9-1-20.2,5.3
			c-5.1,7.5-11.4,11.1-20.5,10c-1.4-0.2-3.5,0.4-4.4,1.4c-2.7,3.1-5,6.5-7.6,10.1c5.1,0,9.5,0,14.9,0c-1.6,2.1-2.5,3.7-3.7,4.8
			c-5.7,5.1-11.3,10.3-17.3,15c-3,2.3-3.9,4.2-1.4,7.3C512.6,381.3,514.7,380.1,516.8,378.8z M96.7,142.3c0,85.7,0,171.1,0,256.4
			c32.8,0,65.2,0,98.2,0c0-32.8,0-65.2,0-97.7c1.4,0.8,1.9,1.8,2.5,2.8c16.2,30.2,32.6,60.4,48.6,90.6c1.9,3.6,4.1,4.7,8.1,4.7
			c34.2-0.2,68.3-0.1,102.5-0.1c1.6,0,3.2,0,5.5,0c-1.3-2.2-2.2-3.8-3.2-5.2c-26.5-40.8-53-81.5-79.7-122.2
			c-2.2-3.3-2.2-5.4,0.2-8.7c28.5-38.6,56.7-77.4,85.1-116.1c1-1.4,2-2.8,3.4-4.8c-37.9,0-74.9-0.1-111.9,0.2c-1.7,0-3.9,2-5,3.7
			c-17.7,29.4-35.2,58.9-52.8,88.3c-0.8,1.4-1.7,2.8-2.6,4.1c-0.3-0.2-0.6-0.3-1-0.5c0-31.8,0-63.6,0-95.6
			C161.9,142.3,129.5,142.3,96.7,142.3z M800.7,333c7.1-1.7,13.2-3.3,19.4-4.5c7.4-1.5,15.2-1,21.1,3.5c7.7,5.9,15.7,3.1,23.7,3.8
			c0-15.9,0-31.2,0-47c-40.7,0-81.1,0-121.5,0c0-6.5,0-12.4,0-18.9c40.7,0,81.1,0,121.5,0c0-15.8,0-31.1,0-46.9
			c-40.6,0-81,0-121.7,0c-0.1-1.8-0.2-3.1-0.2-4.4c-0.1-12.7,1.6-14.5,14.3-14.5c33.8,0,67.6,0,101.5,0c1.9,0,3.9,0,5.9,0
			c0-15.9,0-31.3,0-46.9c-2.4,0-4.4,0-6.4,0c-39.8,0-79.6,0-119.5,0c-5.3,0-10.7,0.1-15.9,0.8c-14.6,1.9-26.3,8.3-32,22.8
			c-0.7,1.9-0.7,4.7,0.2,6.5c7.6,14.6,11.3,30.3,11.8,46.5c0.6,18.6,0.4,37.3,0.2,56c-0.1,6.1-0.8,12.3-2.3,18.2
			c-1.8,7.1-4.6,13.9-6.9,20.7c0,0,0.5,0.1,0.6-0.1c0.9-1.2,1.7-2.4,2.6-3.7c6.4-9.3,12.2-19.2,22.5-25c12-6.8,26-5,32.6,7
			c2.4,4.4,2.8,9.8,4.1,14.9c7.3-6,15.9-9.7,26.2-8.1C793.5,315.4,799.1,322.3,800.7,333z M508.8,157.4c0.5,1.1,0.6,1.8,1,2.2
			c13.8,13.4,17.6,30.3,17.3,48.8c-0.4,25-0.6,50-0.8,75c0,1.9,0.6,4.6,2,5.5c9.6,6.5,11,15.6,9,25.9c-0.5,2.3-0.9,4.6-1.6,8.3
			c4.8-3.8,8.2-6.9,12.1-9.3c14.3-8.8,37.3-5.4,38.7,13.2c0.3,3.4,2.4,4.5,6,3.8c7.6-1.5,14.8-0.1,21.6,3.7c1.3,0.7,3.5,0.5,4.9-0.1
			c2.3-0.9,4.2-2.7,6.4-3.9c8.5-4.9,17.9-4.7,24.6,1.3c3,2.7,5.6,2.7,9,1.7c16.6-4.9,27.2-17.3,27.7-36.2
			c0.7-24.6,0.9-49.4-1.1-73.9c-2.1-25.3-15-44.8-38.7-56c-16-7.6-33.1-9.8-50.5-10c-27.8-0.3-55.6-0.1-83.5-0.1
			C511.8,157.2,510.5,157.3,508.8,157.4z M509.7,284.4c0.2-0.8,0.4-1.4,0.4-2c0.3-27.6,0.8-55.3,0.7-82.9c0-5.3-1.6-10.9-3.7-15.9
			c-6.7-15.9-20.6-23.3-36.3-24.3c-30.2-1.8-60.5-1.4-90.8-1.6c-2.2,0-5.2,2.1-6.7,4.1c-16.1,21.6-32,43.4-47.8,65.3
			c-1.4,2-2.3,4.8-2.3,7.3c-0.2,18.7-0.1,37.3-0.1,56c0,21.4,9.4,34.3,29.7,40.9c16.3,5.3,33.2,4.7,50,4.5c1,0,2.4-2.2,3-3.6
			c2.3-6.4,3.6-13.3,6.7-19.2c4.7-8.8,13.5-13.2,22.4-16.7C458.9,286.6,483.7,282.2,509.7,284.4z M422.4,375.9
			c-0.2-0.4-0.5-0.9-0.7-1.3c-6.5,1.1-13.2,1.6-17.8,7.7c-7.4,9.6-5.7,14.8,6.6,15.6c13.4,0.9,27,1.1,40.3-0.5
			c12.1-1.4,24.1-4.7,35.6-8.8c5.7-2,11.2-6.8,15-11.7c6.1-7.7,4.1-16.1-4.2-21.3c-4.2-2.6-9-4.5-13.7-5.7c-12.7-3.3-25.6-6-38.3-9
			c-2.5-0.6-4.8-1.8-7.3-2.7c5.4-10.6,42.5-21.4,58.4-17.9c-3.2,2.7-6.5,5.5-9.9,8.2c0.4,0.6,0.7,1.1,1.1,1.7c1.3-0.3,2.7-0.5,4-1
			c6.3-2.3,12.6-4.8,18.9-6.9c7.4-2.5,10.5-6.4,10.8-13.7c0.1-3.7-1.3-5.3-4.9-5.9c-27.4-4.5-53.6-0.5-78.8,11
			c-8.6,3.9-12.9,10.3-14.6,19.3c-2.1,11.5,0.7,16,12.3,18c8.4,1.4,16.8,2.3,25.1,4.1c8.9,1.9,17.8,4.2,26.4,7.1
			c4.8,1.6,4.9,4.2,0.6,6.8c-4,2.4-8.2,4.9-12.6,5.7c-13.2,2.4-26.5,4.3-39.9,5.9c-5.5,0.7-11,0.1-16.6,0.1c0-0.4-0.1-0.8-0.1-1.2
			C419.5,378.3,420.9,377.1,422.4,375.9z M702.8,348.2c-4.1-0.9-7.2-2.5-9.9-2c-14.1,2.4-26.8,7.9-37.2,17.8
			c-8.8,8.4-8.3,17.1-1.1,27.8c2.7,3.9,6.7,4.6,10.6,2.4c5.5-3.2,10.6-6.8,15.8-10.4c2.3-1.5,4.3-3.4,7.2-5.6
			c-0.1,2.5-0.1,3.8-0.3,5.1c-0.7,5-1.5,10.4,3.4,13.7c4.9,3.4,9.9,0.8,14.7-1.1c0.5-0.2,0.9-0.4,1.3-0.7c7.6-5.6,15.3-11.1,22.7-17
			c1.1-0.9,1-3.5,1.7-6.4c-8,4.9-14.4,9.1-21.1,12.8c-6.5,3.5-10.1,1.3-8.6-5.9c1.2-6,4-12,7.4-17.1c6.9-10.4,14.9-20.1,22.2-30.1
			c2.3-3.1,4.6-6.3,5.9-9.8c0.8-2.1,0.4-5.8-1-7.1c-1.4-1.3-5.1-1.3-7.1-0.3c-3,1.5-5.9,3.9-8,6.5c-4.2,5.2-7.9,10.7-11.6,16.2
			C707.1,340.9,704.7,345,702.8,348.2z M646.3,371.9c-3,1.9-5.5,3.8-8.3,5.3c-4.5,2.5-9,4.9-13.8,6.8c-1.6,0.7-4.5,0.3-5.8-0.8
			c-0.9-0.8-0.7-4.1,0.3-5.4c4-5.3,8.3-10.3,12.7-15.2c2.3-2.6,5.4-4.5,7.8-7c2.3-2.5,2.5-9.3-0.1-10.4c-1.9-0.8-5.5,0.1-7.4,1.4
			c-11,8-21.6,16.7-32.7,24.6c-5.5,3.9-11.6,7.2-17.6,10.1c-3.6,1.7-5.6-0.2-3.8-3.7c1.9-3.6,5.1-6.7,8.2-9.5
			c5.6-5.1,11.8-9.7,17.3-14.9c3.2-3.1,2.2-5.4-2.2-5.8c-5.9-0.5-12-0.5-16.4,4c-5.2,5.2-10.7,10.5-14.6,16.8
			c-2.7,4.4-3.9,10.3-4,15.6c-0.2,10.2,9.2,15.5,18.2,10.7c4.2-2.3,7.8-5.6,11.6-8.5c2.2-1.7,4.2-3.5,6.3-5.3c0.4,2.4-0.1,4-0.6,5.7
			c-2.8,9.8,3,16,12.9,13.5c2.9-0.7,5.8-1.8,8.2-3.5c7.3-5.1,14.4-10.7,21.7-16C647.1,378.3,647.8,375.8,646.3,371.9z M832.3,353.5
			c3.8-3.8,3.4-6.4-1.4-7.9c-2.2-0.7-4.6-0.8-6.9-0.6c-13.5,1.5-25.7,6.3-35.1,16.2c-3.6,3.7-6.4,9.2-7.3,14.3
			c-2.9,16.2,9.7,26.9,25.3,22c4.1-1.3,7.7-3.9,11.6-5.7c3.2-1.4,6.5-3,9.9-3.6c11.8-2.2,17.7-5.4,18-15.8
			c-11.4,6.4-11.4,6.4-15.1,6C838.7,359.8,838.8,358.5,832.3,353.5z M778.9,375.5c-0.5-0.1-1-0.2-1.5-0.3c-3.5,2.3-6.7,5.1-10.5,6.6
			c-4.8,1.9-10,3.2-15.2,3.7c-1.7,0.2-4.7-2.6-5.4-4.6c-0.5-1.5,1.4-4.3,3-5.8c5.9-5.8,12.5-10.9,17.9-17.2c4-4.6,1.7-8-4.5-8.2
			c-1.5,0-3,0.1-4.5,0.4c-12,3.3-25.1,19.1-26.3,31.5c-1.2,13.1,8.6,21.2,20.9,17c10-3.4,17.9-10.1,25.1-17.7
			C779.1,380,778.6,377.5,778.9,375.5z M782.4,326.6c-5.4,3-10.8,5.3-15.2,8.8c-1.7,1.4-2.5,6.3-1.4,8.2c1.1,1.8,5.5,3,8,2.4
			C781.9,344.3,785.9,335.5,782.4,326.6z M306.7,254.7c-0.4-0.1-0.7-0.2-1.1-0.4c-2.8,3.8-5.7,7.6-8.4,11.6
			c-0.5,0.8-0.8,2.4-0.4,3.1c3,4.8,6.2,9.6,9.9,15.1C306.7,273.6,306.7,264.2,306.7,254.7z"/>
		<path class="st1" d="M96.7,142.3c32.8,0,65.2,0,98,0c0,32.1,0,63.8,0,95.6c0.3,0.2,0.6,0.3,1,0.5c0.9-1.4,1.8-2.7,2.6-4.1
			c17.6-29.5,35.1-58.9,52.8-88.3c1-1.7,3.3-3.7,5-3.7c37-0.2,74-0.2,111.9-0.2c-1.4,2-2.4,3.4-3.4,4.8
			c-28.3,38.7-56.6,77.5-85.1,116.1c-2.4,3.2-2.4,5.3-0.2,8.7c26.7,40.7,53.1,81.4,79.7,122.2c1,1.5,1.9,3,3.2,5.2
			c-2.3,0-3.9,0-5.5,0c-34.2,0-68.3-0.1-102.5,0.1c-4,0-6.2-1.1-8.1-4.7c-16.1-30.3-32.4-60.4-48.6-90.6c-0.5-1-1.1-1.9-2.5-2.8
			c0,32.5,0,65,0,97.7c-33,0-65.4,0-98.2,0C96.7,313.4,96.7,228,96.7,142.3z"/>
		<path class="st1" d="M800.7,333c-1.6-10.7-7.2-17.7-18.3-19.4c-10.3-1.6-18.9,2.1-26.2,8.1c-1.3-5-1.7-10.5-4.1-14.9
			c-6.6-12.1-20.6-13.8-32.6-7c-10.3,5.8-16.1,15.7-22.5,25c-0.8,1.2-1.7,2.5-2.6,3.7c-0.1,0.2-0.6,0.1-0.6,0.1
			c2.3-6.8,5.2-13.6,6.9-20.7c1.5-5.9,2.2-12.1,2.3-18.2c0.2-18.7,0.4-37.3-0.2-56c-0.5-16.3-4.3-31.9-11.8-46.5
			c-0.9-1.7-0.9-4.6-0.2-6.5c5.7-14.4,17.4-20.8,32-22.8c5.3-0.7,10.6-0.8,15.9-0.8c39.8-0.1,79.6,0,119.5,0c2,0,4,0,6.4,0
			c0,15.7,0,31,0,46.9c-2,0-4,0-5.9,0c-33.8,0-67.6,0-101.5,0c-12.7,0-14.4,1.8-14.3,14.5c0,1.3,0.1,2.6,0.2,4.4
			c40.7,0,81,0,121.7,0c0,15.8,0,31.1,0,46.9c-40.5,0-80.8,0-121.5,0c0,6.5,0,12.4,0,18.9c40.4,0,80.8,0,121.5,0c0,15.8,0,31.1,0,47
			c-8-0.7-16,2.1-23.7-3.8c-5.9-4.5-13.7-5-21.1-3.5C813.9,329.8,807.8,331.4,800.7,333z"/>
		<path class="st1" d="M508.8,157.4c1.7-0.1,2.9-0.3,4.2-0.3c27.8,0,55.6-0.2,83.5,0.1c17.4,0.2,34.5,2.5,50.5,10
			c23.7,11.2,36.6,30.7,38.7,56c2,24.5,1.7,49.3,1.1,73.9c-0.5,18.9-11.1,31.3-27.7,36.2c-3.4,1-6,1-9-1.7c-6.7-6-16.1-6.2-24.6-1.3
			c-2.2,1.2-4.1,3-6.4,3.9c-1.4,0.6-3.7,0.8-4.9,0.1c-6.8-3.8-14-5.2-21.6-3.7c-3.6,0.7-5.7-0.3-6-3.8c-1.5-18.6-24.5-22-38.7-13.2
			c-3.9,2.4-7.2,5.5-12.1,9.3c0.7-3.7,1.1-6,1.6-8.3c2.1-10.4,0.7-19.5-9-25.9c-1.3-0.9-2-3.6-2-5.5c0.2-25,0.4-50,0.8-75
			c0.3-18.5-3.6-35.4-17.3-48.8C509.4,159.2,509.3,158.5,508.8,157.4z M565.3,288.8c16.9,0,33.2,0.3,49.5-0.1
			c10.3-0.3,16-6.8,16.2-17.2c0.1-11.3,0.2-22.7-0.1-34c-0.4-15.4-7.7-26.5-20.4-30.7c-14.8-4.9-29.9-1.9-45.1-2.6
			C565.3,232.7,565.3,260.5,565.3,288.8z"/>
		<path class="st1" d="M509.7,284.4c-26-2.3-50.9,2.2-74.8,11.8c-8.8,3.6-17.7,7.9-22.4,16.7c-3.1,5.9-4.4,12.8-6.7,19.2
			c-0.5,1.4-1.9,3.6-3,3.6c-16.8,0.2-33.7,0.7-50-4.5c-20.4-6.6-29.7-19.4-29.7-40.9c0-18.7-0.1-37.3,0.1-56c0-2.5,0.9-5.3,2.3-7.3
			c15.8-21.9,31.7-43.7,47.8-65.3c1.5-2,4.4-4.1,6.7-4.1c30.3,0.2,60.6-0.1,90.8,1.6c15.8,0.9,29.6,8.4,36.3,24.3
			c2.1,5,3.7,10.6,3.7,15.9c0.1,27.6-0.4,55.3-0.7,82.9C510.2,283,509.9,283.7,509.7,284.4z M378.8,248.2c0,4,0,8,0,12
			c0,4.2-0.1,8.3,0,12.5c0.2,11,5.5,16.9,16.4,17.2c13.5,0.3,27,0.3,40.5-0.1c10.6-0.3,17.9-6,18.2-14.9c0.5-19,0.4-38,0-56.9
			c-0.2-7.9-5.3-12.7-13.2-13c-14.5-0.6-28.9-1-43.4-0.7c-12.2,0.2-18.4,7.2-18.5,19.5C378.7,231.9,378.8,240,378.8,248.2z"/>
		<path class="st2" d="M422.4,375.9c-1.4,1.2-2.9,2.5-4.3,3.7c0,0.4,0.1,0.8,0.1,1.2c5.5,0,11.1,0.5,16.6-0.1
			c13.3-1.6,26.7-3.4,39.9-5.9c4.4-0.8,8.7-3.3,12.6-5.7c4.3-2.6,4.2-5.3-0.6-6.8c-8.7-2.8-17.5-5.1-26.4-7.1
			c-8.3-1.8-16.7-2.7-25.1-4.1c-11.6-2-14.4-6.5-12.3-18c1.6-9,6-15.5,14.6-19.3c25.2-11.4,51.4-15.5,78.8-11
			c3.7,0.6,5.1,2.2,4.9,5.9c-0.3,7.3-3.4,11.3-10.8,13.7c-6.4,2.1-12.6,4.6-18.9,6.9c-1.3,0.5-2.7,0.7-4,1c-0.4-0.6-0.7-1.1-1.1-1.7
			c3.3-2.8,6.6-5.6,9.9-8.2c-16-3.6-53.1,7.3-58.4,17.9c2.5,0.9,4.8,2.1,7.3,2.7c12.8,3,25.6,5.7,38.3,9c4.8,1.2,9.5,3.1,13.7,5.7
			c8.4,5.2,10.4,13.6,4.2,21.3c-3.9,4.9-9.3,9.7-15,11.7c-11.5,4-23.6,7.4-35.6,8.8c-13.3,1.5-26.9,1.3-40.3,0.5
			c-12.3-0.8-14-6-6.6-15.6c4.7-6.1,11.3-6.6,17.8-7.7C421.9,375,422.1,375.4,422.4,375.9z"/>
		<path class="st2" d="M702.8,348.2c1.9-3.2,4.3-7.3,6.9-11.3c3.7-5.5,7.4-11.1,11.6-16.2c2.1-2.7,5-5.1,8-6.5c2-1,5.8-1,7.1,0.3
			c1.4,1.3,1.8,5.1,1,7.1c-1.3,3.5-3.6,6.7-5.9,9.8c-7.4,10.1-15.3,19.8-22.2,30.1c-3.4,5.1-6.2,11.1-7.4,17.1
			c-1.5,7.2,2.2,9.4,8.6,5.9c6.7-3.7,13.1-7.9,21.1-12.8c-0.7,2.9-0.5,5.5-1.7,6.4c-7.4,5.9-15.1,11.4-22.7,17
			c-0.4,0.3-0.9,0.5-1.3,0.7c-4.8,1.9-9.8,4.4-14.7,1.1c-4.8-3.4-4-8.7-3.4-13.7c0.2-1.3,0.2-2.6,0.3-5.1c-2.9,2.3-4.9,4.1-7.2,5.6
			c-5.2,3.6-10.4,7.2-15.8,10.4c-3.9,2.3-7.9,1.6-10.6-2.4c-7.3-10.7-7.8-19.3,1.1-27.8c10.4-10,23.2-15.5,37.2-17.8
			C695.6,345.7,698.7,347.3,702.8,348.2z M696.2,359.3c-0.4-0.5-0.8-1.1-1.2-1.6c-7.8,3.1-15.7,6.1-23.3,9.5
			c-4.6,2.1-7.5,6-8.3,11.1c-0.2,1.3,0.3,3,1.2,3.9c0.6,0.5,2.6,0.2,3.5-0.4c7-4.8,14-9.5,20.7-14.6
			C691.6,365,693.7,361.9,696.2,359.3z"/>
		<path class="st2" d="M646.3,371.9c1.4,3.9,0.8,6.4-2.1,8.5c-7.3,5.2-14.3,10.8-21.7,16c-2.4,1.7-5.3,2.8-8.2,3.5
			c-9.8,2.5-15.6-3.7-12.9-13.5c0.5-1.7,1-3.3,0.6-5.7c-2.1,1.8-4.1,3.6-6.3,5.3c-3.8,2.9-7.4,6.3-11.6,8.5
			c-8.9,4.9-18.3-0.5-18.2-10.7c0.1-5.3,1.3-11.2,4-15.6c3.9-6.2,9.4-11.5,14.6-16.8c4.5-4.5,10.6-4.5,16.4-4
			c4.4,0.4,5.4,2.7,2.2,5.8c-5.5,5.2-11.7,9.8-17.3,14.9c-3.1,2.8-6.3,5.9-8.2,9.5c-1.8,3.5,0.2,5.4,3.8,3.7
			c6.1-3,12.1-6.2,17.6-10.1c11.1-8,21.7-16.6,32.7-24.6c1.9-1.4,5.4-2.3,7.4-1.4c2.6,1.1,2.4,7.9,0.1,10.4c-2.4,2.5-5.4,4.4-7.8,7
			c-4.4,4.9-8.8,9.9-12.7,15.2c-1,1.3-1.2,4.6-0.3,5.4c1.2,1.1,4.1,1.5,5.8,0.8c4.8-1.9,9.3-4.4,13.8-6.8
			C640.8,375.7,643.3,373.8,646.3,371.9z"/>
		<path class="st2" d="M832.3,353.5c6.5,4.9,6.4,6.3-0.9,24.8c3.6,0.4,3.6,0.4,15.1-6c-0.3,10.4-6.2,13.6-18,15.8
			c-3.4,0.6-6.7,2.2-9.9,3.6c-3.9,1.8-7.5,4.4-11.6,5.7c-15.6,4.9-28.2-5.8-25.3-22c0.9-5.1,3.7-10.5,7.3-14.3
			c9.4-9.8,21.6-14.7,35.1-16.2c2.3-0.2,4.7-0.1,6.9,0.6C835.7,347.1,836.1,349.7,832.3,353.5z M816.9,361.5
			c-0.3-0.3-0.5-0.6-0.8-0.8c-4.7,2.7-9.9,4.8-14.1,8.2c-3.3,2.7-6.1,6.5-7.9,10.4c-1,2.1-0.5,6.6,1.1,7.9c4.3,3.4,9.1,1.4,13.4-1.1
			c2.7-1.5,3.8-3.1,2.8-6.7c-0.8-2.9,0.3-6.5,1.2-9.5C813.6,366.9,815.5,364.3,816.9,361.5z M824.1,370.2c0.9,0,1.8,0,2.7,0
			c0.4-2.5,1.1-5.1,1-7.6c0-0.9-1.9-1.9-3.1-2.4c-0.5-0.2-2.2,1-2.2,1.4C822.9,364.5,823.6,367.3,824.1,370.2z"/>
		<path class="st2" d="M516.8,378.8c-2.1,1.3-4.2,2.5-6.4,3.8c-2.5-3.1-1.6-5,1.4-7.3c6-4.7,11.6-9.9,17.3-15
			c1.3-1.1,2.1-2.7,3.7-4.8c-5.4,0-9.8,0-14.9,0c2.6-3.6,4.9-7,7.6-10.1c0.9-1,3-1.6,4.4-1.4c9.1,1.1,15.4-2.5,20.5-10
			c4.3-6.2,11.9-8,20.2-5.3c-4.4,5-8.4,9.6-12.9,14.6c4,0.4,7.6,0.8,11.6,1.2c-3.6,8.3-9.4,11.9-17.3,11.4c-4.4-0.2-7.3,1.1-9.5,4.7
			c-3.4,5.7-7.1,11.2-10,17.1c-1,2.1-0.9,6.6,0.6,7.7c1.8,1.4,5.9,1.4,8.2,0.3c6.3-2.9,12.2-6.7,18.3-10.2c1.4-0.8,2.8-1.6,4.3-2.5
			c1.6,3.4,1.4,5.9-1.7,8c-8.3,5.5-16.3,11.5-24.9,16.5c-3.8,2.2-8.8,3.1-13.3,3.4c-6.7,0.4-10.6-4.3-9.5-10.9c0.6-3.6,2-7,3-10.5
			c0.1-0.4,0.1-0.7,0.2-1.1C517.4,378.5,517.1,378.6,516.8,378.8z"/>
		<path class="st2" d="M778.9,375.5c-0.2,1.9,0.2,4.5-0.8,5.6c-7.1,7.6-15,14.2-25.1,17.7c-12.3,4.2-22.1-3.9-20.9-17
			c1.2-12.4,14.3-28.2,26.3-31.5c1.4-0.4,3-0.5,4.5-0.4c6.2,0.1,8.4,3.6,4.5,8.2c-5.4,6.2-12,11.3-17.9,17.2c-1.5,1.5-3.5,4.3-3,5.8
			c0.7,2,3.6,4.8,5.4,4.6c5.1-0.5,10.3-1.8,15.2-3.7c3.8-1.5,7-4.4,10.5-6.6C777.9,375.3,778.4,375.4,778.9,375.5z"/>
		<path class="st2" d="M782.4,326.6c3.5,8.9-0.5,17.8-8.6,19.5c-2.5,0.5-6.9-0.6-8-2.4c-1.1-1.9-0.3-6.8,1.4-8.2
			C771.6,331.8,777,329.5,782.4,326.6z"/>
		<path class="st0" d="M565.3,288.8c0-28.4,0-56.1,0-84.6c15.2,0.7,30.4-2.3,45.1,2.6c12.7,4.2,20,15.3,20.4,30.7
			c0.3,11.3,0.2,22.7,0.1,34c-0.1,10.4-5.8,16.9-16.2,17.2C598.5,289.2,582.2,288.8,565.3,288.8z M581,246c0,7.7,0.1,15.3-0.1,23
			c-0.1,3,0.9,4.1,4,4.1c8.7-0.2,17.3-0.1,26,0c2.9,0,4.2-0.8,4.1-3.9c-0.2-10.7,0.1-21.3-0.1-32c-0.2-9.9-4.5-14.7-14.1-16.1
			c-5.2-0.8-10.6-0.6-15.8-1.1c-3.1-0.2-4.1,1-4,4C581.1,231.3,581,238.7,581,246z"/>
		<path class="st0" d="M378.8,248.2c0-8.2-0.1-16.3,0-24.5c0.1-12.3,6.3-19.2,18.5-19.5c14.5-0.3,28.9,0.2,43.4,0.7
			c7.9,0.3,13,5.1,13.2,13c0.4,19,0.5,38,0,56.9c-0.2,8.9-7.5,14.6-18.2,14.9c-13.5,0.4-27,0.4-40.5,0.1
			c-10.9-0.3-16.3-6.2-16.4-17.2c-0.1-4.2,0-8.3,0-12.5C378.8,256.2,378.8,252.2,378.8,248.2z M438,247.1c0-7.5-0.1-15,0-22.4
			c0.1-3.4-1.2-4.8-4.7-4.7c-11.1,0.1-22.3,0.1-33.4,0c-3.6,0-5,1.2-5,4.9c0.1,15,0.1,29.9,0,44.9c0,3.2,1,4.4,4.3,4.3
			c11.3-0.2,22.6-0.2,33.9,0c3.7,0,5-1.3,4.9-5C437.9,261.8,438,254.4,438,247.1z"/>
		<path class="st0" d="M696.2,359.3c-2.4,2.6-4.6,5.7-7.4,7.8c-6.7,5.1-13.7,9.9-20.7,14.6c-0.9,0.6-3,0.9-3.5,0.4
			c-0.9-0.8-1.3-2.6-1.2-3.9c0.7-5.1,3.6-9.1,8.3-11.1c7.7-3.4,15.6-6.3,23.3-9.5C695.4,358.2,695.8,358.7,696.2,359.3z"/>
		<path class="st0" d="M816.9,361.5c-1.4,2.7-3.3,5.4-4.2,8.3c-1,3.1-2,6.7-1.2,9.5c1,3.6-0.1,5.2-2.8,6.7
			c-4.4,2.4-9.1,4.5-13.4,1.1c-1.6-1.2-2.1-5.8-1.1-7.9c1.8-3.9,4.6-7.7,7.9-10.4c4.2-3.4,9.3-5.5,14.1-8.2
			C816.4,361,816.7,361.2,816.9,361.5z"/>
		<path class="st0" d="M824.1,370.2c-0.6-2.9-1.2-5.7-1.6-8.6c0-0.4,1.7-1.6,2.2-1.4c1.2,0.5,3.1,1.5,3.1,2.4c0.1,2.5-0.6,5.1-1,7.6
			C825.9,370.2,825,370.2,824.1,370.2z"/>
		<path class="st0" d="M516.8,378.8c0.3-0.1,0.6-0.3,1-0.4c-0.1,0.4-0.1,0.7-0.2,1.1C517.3,379.2,517,379,516.8,378.8z"/>
	</g>
</g>
</svg>
