<svg id="Layer_1" xmlns="http://www.w3.org/2000/svg" width="260" height="260" viewBox="0 0 260 260"><style>.st0{opacity:.25}.st1{opacity:3e-2}.st2{fill:#fff}</style><!--<path d="M194 2L92.4 103.6 27.6 53.2 2 66v128l25.6 12.8 64.8-50.4L194 258l64-25.6V27.6L194 2zM27 169V91l39 39-39 39zm99.4-39L194 77v106l-67.6-53z" class="st0"/>-->

<path d="M92.5 103.6L92.5 27.6 28.5 2 28.5 258 92.5 232.4 92.5 156.4 194 258 194 183 126.4 130 194 77 194 2 92.5 103.6z"/>

<!--<path class="st1 st2" d="M194 2l64 25.6v204.8L194 258 92.4 156.4l-64.8 50.4L2 194V66l25.6-12.8 64.8 50.4L194 2m0 181V77l-67.6 53 67.6 53M27 169l39-39-39-39v78M193.8.8l-.5.5-101 101-64.1-49.9-.5-.4-.6.3L1.6 65.1l-.6.3v129.2l.6.3 25.6 12.8.6.3.5-.4 64.1-49.9 101 101 .5.5.6-.2 64-25.6.6-.3V26.9l-.6-.3-64-25.6-.7-.2zM128 130l65-50.9V181l-65-51zM28 166.6V93.4L64.6 130 28 166.6z"/>-->
<circle cx="194" cy="2" r="5"/>
<circle cx="92.5" cy="103.6" r="5"/>
<circle cx="27.6" cy="53.2" r="5"/>
<circle cx="2" cy="66" r="5"/>
<circle cx="2" cy="194" r="5"/>
<circle cx="27.6" cy="206.8" r="5"/>
<circle cx="92.4" cy="156.4" r="5"/>
<circle cx="194" cy="258" r="5"/>
<circle cx="258" cy="232.4" r="5"/>
<circle cx="258" cy="27.6" r="5"/>
<circle cx="194" cy="2" r="5"/><!-- z -->
<!--<circle cx="27" cy="169" r="5"/>
<circle cx="27" cy="91" r="5"/>
<circle cx="66" cy="130" r="5"/>
<circle cx="27" cy="169"/>--><!-- z -->
<circle cx="126.4" cy="130" r="5"/>
<circle cx="194" cy="77" r="5"/>
<circle cx="194" cy="183" r="5"/>
<circle cx="126.4" cy="130" r="5"/><!-- z -->

<circle cx="92.5" cy="103.6" r="10"/>
<circle cx="92.5" cy="27.6" r="10"/>
<circle cx="28.5" cy="2" r="10"/>
<circle cx="28.5" cy="258" r="10"/>
<circle cx="92.5" cy="232.4" r="10"/>
<circle cx="92.5" cy="156.4" r="10"/>
<circle cx="194" cy="258" r="10"/>
<circle cx="194" cy="183" r="10"/>
<circle cx="126.4" cy="130" r="10"/>
<circle cx="194" cy="77" r="10"/>
<circle cx="194" cy="2" r="10"/>
<circle cx="92.5" cy="103.6" r="10"/>
</svg>